<?xml version="1.0" encoding="utf-8"?>
<!-- Generator: Adobe Illustrator 27.5.0, SVG Export Plug-In . SVG Version: 6.00 Build 0)  -->
<svg version="1.1" xmlns="http://www.w3.org/2000/svg" xmlns:xlink="http://www.w3.org/1999/xlink" x="0px" y="0px"
	 viewBox="0 0 1122 1122" style="enable-background:new 0 0 1122 1122;" xml:space="preserve">
<g id="Bg">
	<rect style="fill:#FFFFFF;" width="1122" height="1122"/>
</g>
<g id="Object">
	<g>
		<path d="M953.912,557.035l-33.08-16.036c-0.095-4.403-0.273-8.841-0.668-13.33c-0.015-0.152-0.028-0.279-0.046-0.429l31.053-19.62
			c3.596-2.269,5.416-6.518,4.587-10.686c-3.96-19.965-10.261-39.037-18.604-56.862c-1.8-3.851-5.808-6.2-10.046-5.894
			l-36.815,2.669c-2.379-3.926-4.882-7.753-7.511-11.483l17.136-32.584c1.974-3.763,1.429-8.38-1.382-11.57
			c-13.228-15.044-28.211-28.414-44.59-39.893c-3.481-2.441-8.144-2.477-11.668-0.093l-30.506,20.681
			c-4.001-2.196-8.074-4.261-12.219-6.201l-1.445-36.799c-0.169-4.247-2.945-7.963-6.97-9.327
			c-18.732-6.353-38.381-10.505-58.592-12.239c-4.227-0.364-8.267,1.927-10.12,5.76l-16.043,33.094
			c-4.417,0.101-8.857,0.286-13.342,0.665h-0.054c-0.135,0.016-0.253,0.026-0.386,0.045l-19.569-31.053
			c-2.266-3.594-6.539-5.43-10.699-4.599c-19.964,3.996-39.045,10.272-56.901,18.637c-3.85,1.808-6.198,5.808-5.888,10.047
			l2.665,36.819c-3.906,2.379-7.723,4.88-11.453,7.513l-32.616-17.15c-3.761-1.977-8.383-1.427-11.577,1.384
			c-15.021,13.241-28.435,28.224-39.873,44.612c-2.433,3.483-2.459,8.13-0.076,11.65l20.628,30.402
			c-2.221,4.022-4.314,8.13-6.274,12.317l-8.951,0.345c-14.804-9.456-27.195-16.066-37.518-20.529
			c-14.95-6.454-25.744-8.597-33.788-8.605c-5.429-0.006-9.601,1.025-12.59,2.367c-2.991,1.338-4.739,2.974-5.453,3.799
			c-2.154,2.469-2.713,5.966-1.431,8.984l7.565,17.784c0.312,0.738,0.744,1.382,1.216,1.977c-0.74,0.648-1.538,1.374-2.487,2.281
			c-4.999,4.771-13.293,13.454-23.314,24.915c-3.264,3.735-6.734,7.806-10.295,12.079v-8.764c0-1.392-0.566-2.75-1.546-3.741
			c-0.989-0.982-2.353-1.547-3.741-1.547h-5.786l19.218-96.497c0.497-2.505,0.746-4.982,0.746-7.425
			c0.024-9.073-3.496-17.527-9.643-23.511c-6.124-6.013-14.765-9.459-24.228-9.436h-50.878v-3.07h20.875
			c1.639,0,3.238-0.664,4.403-1.82c1.152-1.163,1.82-2.762,1.82-4.401v-27.063c0-1.642-0.668-3.243-1.82-4.402
			c-1.164-1.161-2.765-1.824-4.403-1.824h-20.875V289.11c0-1.637-0.662-3.237-1.822-4.4c-1.161-1.158-2.761-1.818-4.401-1.818
			h-21.966c-1.64,0-3.242,0.66-4.4,1.818c-1.16,1.157-1.822,2.762-1.822,4.4v20.267h-20.87c-1.637,0-3.244,0.664-4.394,1.824
			c-1.165,1.157-1.828,2.76-1.828,4.402v27.063c0,1.639,0.662,3.245,1.828,4.401c1.15,1.156,2.757,1.82,4.394,1.82h20.87v3.07
			h-50.871c-9.575-0.022-18.309,3.51-24.496,9.611c-6.216,6.075-9.794,14.642-9.77,23.857c0,2.26,0.206,4.558,0.629,6.863
			l17.604,96.458c0.011,0.027,0.021,0.053,0.028,0.081h-3.678c-1.395,0-2.758,0.565-3.743,1.547
			c-0.984,0.991-1.548,2.349-1.548,3.741v11.638h-3.544c-4.941,0-9.473,2.015-12.705,5.254c-3.242,3.226-5.261,7.761-5.255,12.695
			c0,9.916,8.025,17.952,17.96,17.958h21.662v11.776c0,1.184,0.477,2.337,1.316,3.179c0.835,0.838,1.998,1.314,3.182,1.314h13.893
			c-0.063,30.421-0.768,55.057-2.334,75.372c-1.232,15.996-2.993,29.343-5.352,40.859c-3.55,17.286-8.365,30.398-14.962,42.68
			c-6.255,11.638-14.26,22.642-24.522,35.347h-26.294c-2.251,0-4.461,0.912-6.051,2.507c-1.592,1.593-2.511,3.801-2.511,6.056
			v23.316c0,2.254,0.919,4.464,2.511,6.053c1.59,1.597,3.8,2.51,6.051,2.51h187.123c1.106,3.369,2.98,6.398,5.42,8.829
			c4.014,4.034,9.653,6.546,15.8,6.542h229.087c6.138,0.004,11.777-2.513,15.797-6.542c4.03-4.014,6.548-9.657,6.545-15.799
			c0-1.37-0.141-2.71-0.382-4.022c0.336,0.155,0.674,0.319,1.03,0.438c18.706,6.348,38.355,10.521,58.618,12.228
			c4.238,0.36,8.25-1.928,10.111-5.753l16.06-33.094c4.407-0.096,8.847-0.267,13.357-0.657h0.022
			c0.124-0.012,0.236-0.029,0.362-0.041l19.578,31.06c2.262,3.596,6.539,5.432,10.707,4.596
			c19.983-3.996,39.043-10.272,56.901-18.636c3.843-1.802,6.192-5.801,5.886-10.04l-2.653-36.832
			c3.898-2.379,7.712-4.882,11.445-7.501l32.593,17.124c3.759,1.979,8.383,1.429,11.57-1.381
			c15.014-13.226,28.426-28.191,39.886-44.61c2.433-3.484,2.47-8.126,0.083-11.645l-20.666-30.505
			c2.186-3.988,4.253-8.049,6.194-12.187l36.809-1.44c4.249-0.167,7.966-2.946,9.332-6.971c6.348-18.742,10.49-38.411,12.2-58.648
			C960.03,562.908,957.736,558.888,953.912,557.035z M440.711,445.819c4.906-0.012,13.544,1.38,26.997,7.198
			c0.779,0.34,1.627,0.741,2.436,1.109c-0.783-0.033-1.559-0.127-2.357-0.127c-7.138,0.007-14.423,1.222-22.627,3.46
			c-0.08-0.854-0.25-1.703-0.603-2.531l-3.873-9.109C440.7,445.819,440.702,445.819,440.711,445.819z M408.346,506.985
			c8.729-10.273,16.552-18.853,22.347-24.882c2.9-3.008,5.294-5.385,6.988-6.968c0.796-0.747,1.421-1.292,1.822-1.626
			c11.889-3.988,20.586-5.818,28.285-5.812c6.84,0.012,13.171,1.368,21.016,4.389c7.821,3.02,17.04,7.757,28.953,14.224
			c6.871,3.737,11.434,7.873,14.362,12.518c2.911,4.658,4.389,9.999,4.407,16.892c0.037,10.816-3.986,25.297-12.124,43.448
			c-1.445,3.234-3.895,8.54-7.461,14.733c-5.331,9.294-13.171,20.501-23.516,29.422c-10.386,8.939-23.021,15.568-38.683,16.507
			c-11.675,0.686-21.343,1.387-29.42,2.272c-12.119,1.357-20.673,2.992-27.418,6.144c-3.357,1.579-6.276,3.645-8.549,6.268
			c-2.284,2.608-3.81,5.692-4.726,8.858c-1.516,5.183-2.008,9.812-2.255,13.567c-0.186,2.81-0.25,5.143-0.428,6.76
			c-0.121,1.215-0.316,1.979-0.434,2.256l-0.068,0.131c-0.063,0.056-0.412,0.269-1.388,0.488c-1.065,0.245-2.802,0.43-5.216,0.43
			c-2.036,0-4.548-0.128-7.565-0.404c-2.876-0.264-5.55-0.364-8.026-0.364c-7.407,0.017-13.11,0.848-16.572,0.82
			c-2.175,0.007-3.221-0.291-3.695-0.551c-0.375-0.216-0.725-0.433-1.379-1.388c-0.97-1.398-2.286-4.529-3.455-9.766
			c-1.132-4.994-2.201-11.883-3.26-20.942c3.941-15.917,12.262-33.941,22.777-51.891
			C369.777,554.962,390.885,527.547,408.346,506.985z M594.292,763.31H393.976c0.252-2.435,0.653-4.803,1.18-7.112
			c1.911-8.351,5.522-15.963,10.386-23.204c5.76-8.58,13.284-16.479,21.304-24.009c7.205-6.771,14.821-13.246,21.957-19.622
			c7.526-6.771,14.522-13.463,19.905-20.778c2.678-3.656,4.962-7.496,6.598-11.609c1.633-4.111,2.605-8.528,2.602-13.117
			c0-4.062-3.292-7.355-7.354-7.355c-0.878,0-1.717,0.183-2.496,0.468c-2.83,1.024-4.854,3.711-4.854,6.887
			c-0.002,3.381-0.911,6.716-2.798,10.39c-3.273,6.403-9.757,13.474-17.871,20.939c-12.143,11.254-27.721,23.409-40.569,38.359
			c-4.775,5.567-9.178,11.552-12.832,18.074c-2.433-3.576-4.746-7.136-6.814-10.712c-4.691-8.098-8.515-16.391-11.705-25.88
			c-1.538-4.583-2.915-9.495-4.156-14.755c3.127,0.276,5.905,0.431,8.378,0.436c2.784-0.005,5.222-0.178,7.484-0.612
			c1.973-0.382,3.83-0.967,5.561-1.907c1.518-0.812,2.913-1.92,4.008-3.22c1.95-2.298,2.841-4.922,3.288-7.196
			c0.662-3.456,0.62-6.562,0.859-9.883c0.215-3.31,0.61-6.792,1.744-10.678c0.69-2.244,1.423-3.389,2.884-4.665
			c1.11-0.938,2.802-1.931,5.426-2.874c3.906-1.425,9.792-2.651,17.925-3.63c8.137-0.989,18.513-1.774,31.534-2.544
			c4.242-0.243,8.307-0.871,12.211-1.771c7.857-1.805,15.025-4.786,21.421-8.543c10.36-6.077,18.78-14.042,25.592-22.197
			c2.654-3.18,5.088-6.372,7.261-9.506c7.738-11.176,12.568-21.557,14.874-26.718l-6.251-2.801l6.251,2.794
			c8.204-18.429,12.913-33.896,13.253-47.624c16.158,21.37,27.236,42.416,34.725,62.732c11.174,30.328,14.416,59.097,14.42,84.927
			c0,17.582-1.51,33.785-3.049,48.16c-1.26,11.809-2.512,22.27-2.945,31.556c-0.1,2.037-0.204,4.084-0.208,5.998
			C593.116,755.052,593.429,759.283,594.292,763.31z M383.34,499.411v6.342H218.39v-6.342H383.34z M269.01,336.442v-14.616h20.864
			c1.642,0,3.242-0.667,4.401-1.824c1.158-1.158,1.826-2.765,1.826-4.4v-20.261h9.51v20.261c0,1.635,0.664,3.242,1.822,4.4
			c1.165,1.157,2.767,1.824,4.407,1.824h20.877v14.616h-20.877c-1.64,0-3.242,0.659-4.407,1.824c-1.158,1.155-1.822,2.76-1.822,4.4
			v11.624h-9.51v-11.624c0-1.639-0.668-3.245-1.826-4.4c-1.156-1.165-2.759-1.824-4.401-1.824H269.01z M215.988,389.213
			c-0.239-1.322-0.351-2.588-0.351-3.787c0.019-4.901,1.767-8.785,4.641-11.636c2.9-2.823,7.018-4.686,12.503-4.707h136.161
			c5.437,0.021,9.452,1.838,12.254,4.558c2.782,2.746,4.47,6.485,4.493,11.264c0,1.284-0.126,2.646-0.416,4.089l-19.231,96.539
			c-0.108,0.569-0.158,1.127-0.158,1.674H233.722c0-0.505-0.024-1.017-0.121-1.537H233.6L215.988,389.213z M204.265,529.211
			c-3.049-0.004-5.506-2.471-5.517-5.508c0.011-3.042,2.457-5.501,5.517-5.501h177.259c-2.817,3.582-5.65,7.229-8.482,11.009
			H204.265z M234.917,548.939v-7.742h129.375c-1.822,2.559-3.633,5.132-5.424,7.742H234.917z M237.183,731.205
			c5.316-9.178,9.779-18.844,13.405-29.635c5.433-16.204,8.985-34.852,11.197-58.583c2.121-22.744,3.006-50.294,3.08-85.057h71.987
			c0.019,9.182,0.097,17.86,0.241,26.073c-8.966,16.341-16.108,32.771-19.829,48.332c-0.187,0.794-0.232,1.551-0.139,2.363
			c1.017,8.854,2.041,15.889,3.219,21.603c0.883,4.289,1.848,7.835,3.047,10.905c0.908,2.3,1.945,4.337,3.257,6.158
			c1.93,2.724,4.658,4.891,7.573,6.008c2.924,1.141,5.765,1.376,8.454,1.382c0.928-0.006,1.857-0.056,2.787-0.1
			c2.507,11.602,5.65,21.862,9.577,31.355c4.179,10.117,9.213,19.304,15.093,28.242c2.247,3.423,4.657,6.823,7.151,10.222H224.442
			C229.109,744.104,233.373,737.784,237.183,731.205z M363.394,769.858c-1.638,1.636-3.01,3.554-4.079,5.649H179.421v-6.2h184.577
			C363.799,769.492,363.587,769.665,363.394,769.858z M611.976,789.35c-0.972,0.956-2.225,1.521-3.691,1.526H379.198
			c-1.473-0.005-2.724-0.571-3.694-1.526c-0.959-0.972-1.525-2.227-1.529-3.691c0.004-1.467,0.577-2.72,1.529-3.694
			c0.971-0.957,2.229-1.525,3.694-1.529h229.087c1.466,0.004,2.719,0.569,3.685,1.529c0.958,0.974,1.531,2.227,1.535,3.694
			C613.501,787.123,612.928,788.377,611.976,789.35z M624.084,769.858c-3.097-3.105-7.165-5.3-11.676-6.149
			c-0.558-0.942-1.137-2.445-1.542-4.617c-0.416-2.246-0.637-5.153-0.635-8.585c-0.009-5.502,0.559-12.311,1.366-20.134
			c3.689,2.01,7.445,3.918,11.258,5.702l1.343,33.912C624.16,769.949,624.124,769.9,624.084,769.858z M930.149,612.508
			l-35.853,1.403c-3.966,0.161-7.454,2.548-9.031,6.188c-3.221,7.449-6.906,14.676-11.009,21.643
			c-2.012,3.417-1.876,7.696,0.345,10.977l20.103,29.657c-8.189,10.99-17.335,21.207-27.346,30.575l-31.673-16.645
			c-3.511-1.848-7.767-1.507-10.944,0.87c-6.445,4.834-13.232,9.275-20.306,13.309c-3.448,1.967-5.439,5.708-5.157,9.661
			l2.587,35.893c-12.395,5.336-25.401,9.613-38.932,12.74l-19.192-30.451c-2.134-3.383-6.023-5.22-9.989-4.717
			c-2.201,0.283-4.221,0.548-6.118,0.717l0.024-0.008c-5.663,0.49-11.341,0.691-16.992,0.691c-0.354,0-0.709,0-1.05,0
			c-3.967-0.017-7.554,2.216-9.283,5.788l-15.693,32.33c-13.739-1.588-27.138-4.413-40.084-8.362l-1.42-35.856
			c-0.152-3.962-2.561-7.464-6.201-9.031c-7.452-3.21-14.666-6.889-21.63-11.011c-0.438-0.255-0.881-0.474-1.343-0.662
			c1.312-12.989,2.468-27.578,2.468-43.413c0.004-27.259-3.442-58.211-15.474-90.848c-11.896-32.312-32.237-66.201-65.493-99.705
			c0.69-0.793,1.279-1.691,1.707-2.686c3.199-7.451,6.888-14.647,11.015-21.637c2.017-3.413,1.88-7.713-0.343-10.991l-20.124-29.665
			c8.161-10.959,17.313-21.187,27.323-30.557l31.705,16.676c3.535,1.855,7.795,1.509,10.981-0.905
			c6.381-4.832,13.186-9.27,20.254-13.28c3.44-1.961,5.454-5.726,5.172-9.68l-2.594-35.895c12.39-5.336,25.407-9.609,38.923-12.737
			l19.179,30.431c2.095,3.326,5.942,5.175,9.851,4.731c2.331-0.265,4.401-0.55,6.322-0.714h-0.067
			c5.669-0.474,11.295-0.695,16.903-0.695c0.378,0,0.75,0,1.13,0.004c3.965,0.022,7.578-2.228,9.309-5.796l15.674-32.322
			c13.717,1.601,27.12,4.417,40.073,8.363l1.405,35.868c0.156,3.964,2.563,7.467,6.201,9.034c7.5,3.229,14.708,6.889,21.669,10.99
			c3.418,2.009,7.695,1.876,10.978-0.35l29.658-20.096c10.983,8.204,21.207,17.34,30.569,27.342l-16.658,31.675
			c-1.846,3.512-1.497,7.801,0.891,10.971c4.832,6.407,9.267,13.181,13.256,20.263c1.945,3.455,5.743,5.493,9.693,5.211
			l35.904-2.603c5.327,12.388,9.608,25.392,12.714,38.89l-30.407,19.213c-3.325,2.102-5.158,5.927-4.721,9.834
			c0.265,2.318,0.533,4.374,0.677,6.206l0.009,0.085c0.488,5.607,0.694,11.236,0.694,16.877c0,0.388-0.008,0.774-0.008,1.148
			c-0.015,3.962,2.229,7.56,5.797,9.285l32.315,15.669C936.913,586.134,934.096,599.544,930.149,612.508z"/>
		<path d="M920.164,527.621c0,0.014,0,0.031,0,0.048c0,0.014,0.004,0.026,0.004,0.038L920.164,527.621z"/>
		<path d="M784.623,465.394c-19.469-17.753-45.356-28.453-73.297-28.453c-3.171,0-6.379,0.143-9.593,0.422
			c-28.305,2.448-53.231,15.604-70.976,35.081c-17.754,19.47-28.454,45.354-28.454,73.293c0,3.161,0.139,6.345,0.416,9.547
			c2.453,28.297,15.594,53.217,35.061,70.971c19.458,17.767,45.332,28.478,73.27,28.474c3.179,0,6.387-0.137,9.617-0.422h-0.009
			c28.318-2.443,53.25-15.594,70.996-35.075c17.762-19.475,28.459-45.374,28.459-73.329c0-3.156-0.134-6.339-0.414-9.543
			C817.242,508.06,804.096,483.14,784.623,465.394z M776.468,605.382c-14.449,15.837-34.555,26.454-57.586,28.452l-0.006,0.004
			c-2.637,0.231-5.246,0.341-7.827,0.341c-22.646,0-43.586-8.663-59.42-23.103c-15.819-14.451-26.433-34.557-28.439-57.57
			c-0.232-2.614-0.34-5.203-0.34-7.769c0.004-22.658,8.656-43.616,23.095-59.45c14.442-15.831,34.544-26.45,57.573-28.458
			c2.626-0.225,5.227-0.341,7.806-0.341c22.664,0,43.617,8.663,59.451,23.094c15.828,14.441,26.448,34.546,28.456,57.556
			c0.223,2.605,0.338,5.199,0.338,7.765C799.57,568.577,790.91,589.541,776.468,605.382z"/>
		<path d="M440.36,543.808c8.909-0.005,16.138-7.219,16.138-16.131c0-8.92-7.229-16.146-16.138-16.146
			c-8.92,0-16.144,7.227-16.144,16.146C424.222,536.586,431.44,543.804,440.36,543.808z M440.36,521.332
			c3.496,0.005,6.333,2.838,6.339,6.346c-0.006,3.488-2.839,6.322-6.339,6.332c-3.505-0.01-6.337-2.843-6.342-6.332
			C434.023,524.17,436.855,521.337,440.36,521.332z"/>
		<path d="M600.419,810.03c-3.839,0-6.953,3.11-6.953,6.947v8.239h-200.24v-8.239c0-3.837-3.112-6.947-6.945-6.947
			c-3.834,0-6.947,3.11-6.947,6.947v22.131h228.025v-22.131C607.359,813.14,604.253,810.03,600.419,810.03z"/>
	</g>
</g>
</svg>
